<svg xmlns="http://www.w3.org/2000/svg" width="126.287" height="124.934" viewBox="0 0 126.287 124.934"><defs><style>.a{fill:#fff;}.b{fill:#8f866d;}</style></defs><g transform="translate(-243.267 -201.768)"><g transform="translate(243.267 300.845)"><g transform="translate(27.225 2.893)"><path class="a" d="M562.378,1324.544l1.213-.014.962-.028.546-.008.667.2.014.321-.683.474-1.31.418-.2.125-.4,1.018-.028.4v8.727l-.056,1.394-.2,1.269-.335,1.171-.446,1.046-.586.934-.558.641-.809.725-.934.6-1.059.46-1.157.321-1.283.181-1.227.056-1.366-.056-1.241-.153-1.143-.265-1.018-.362-.92-.474-.795-.572-.683-.683-.586-.781-.474-.892-.348-1-.251-1.087-.125-1.213-.028-.906V1327.4l-.307-1.032-.906-.613-.474-.112-.711-.2-.125-.363.223-.558.711-.014,1.547.07,1.394.028,1.241.014,1.087-.042.934-.056.056-.014.558.042.1.53-.655.46-1.366.349-.112.056-.474.976-.014.265V1336l.07,1.464.2,1.31.321,1.143.446.976.585.795.767.7.948.516,1.129.362,1.3.2,1.046.042,1.2-.07,1.073-.237.948-.376.809-.53.683-.7.544-.837.418-.99.279-1.143.153-1.3.014-.892v-8.769l-.279-1.213-.251-.293-1-.474-.488-.1-.836-.572.251-.544.711-.014,1.673.056Z" transform="translate(-543.014 -1324.46)"/></g><g transform="translate(53.085 2.726)"><path class="a" d="M848.055,1322.786l1.3-.084.7-.07.683-.014.265.516-.822.627-1.115.544-.6.864-.112.711v12.407l.014,1.338.028,1.213.028,1.073.028.488-.39.906-.934-.376-.223-.335-.279-.46-.432-.613-.6-.753-.739-.906-.92-1.059-1.06-1.2-1.213-1.366-.711-.767-.878-.962-.878-.934-.864-.934-.864-.906-.85-.906-.85-.892-.85-.878-.836-.864-.836-.85-.725-.725-.265-.07-.153.349v12.477l.209,1.157.669.794,1.1.432.042.014.836.585-.767.544H834l-1.506-.056-1.366-.028-1.2.014-1.046.028-.516.042-.641-.544.641-.446,1.255-.474.321-.279.362-1.018.028-.585v-13.467l-.265-1.213-.1-.14-.892-.669-.46-.223-.711-.711.683-.321,1.352.139,1.213.028.85-.042,1.087.321.251.237L846.1,1337.1l.349.279.112-.4v-11.013l-.223-1.129-.683-.753-1.115-.4-.711-.418.655-.572,1.129.1,1.2.028Z" transform="translate(-827.73 -1322.618)"/></g><g transform="translate(79.182 2.893)"><path class="a" d="M1134.432,1324.544l1.2-.014.962-.028.544-.042.669.237.014.321-.683.474-1.3.418-.209.125-.4,1.018-.014.4v8.727l-.07,1.394-.2,1.269-.321,1.171-.46,1.046-.586.934-.544.641-.822.725-.934.6-1.046.46-1.171.321-1.283.181-1.227.056-1.366-.056-1.241-.153-1.129-.265-1.031-.362-.906-.474-.809-.572-.683-.683-.586-.781-.46-.892-.363-1-.237-1.087-.14-1.213-.028-.906V1327.4l-.307-1.032-.906-.613-.474-.112-.7-.2-.139-.363.223-.558.725-.014,1.534.07,1.394.028,1.241.014,1.087-.042.934-.056.056-.014.558.042.1.53-.655.46-1.352.349-.125.056-.474.976-.014.265V1336l.07,1.464.2,1.31.321,1.143.46.976.572.795.767.7.962.516,1.115.362,1.311.2,1.031.042,1.213-.07,1.074-.237.934-.376.823-.53.669-.7.544-.837.418-.99.279-1.143.153-1.3.028-.892v-8.769l-.293-1.213-.237-.293-1.018-.474-.474-.1-.836-.572.237-.544.711-.014,1.687.056Z" transform="translate(-1115.055 -1324.46)"/></g><g transform="translate(104.093 2.587)"><path class="a" d="M1393.376,1321.5l1.3-.1,1.366-.167.655-.1.683-.056.251.516-.781.627-1.157.683-.167.39.321.739.557.753.6.836.641.934.7,1.018.739,1.087.767,1.185.836,1.269.223.349.279.279.307-.279.5-.739.7-.99.864-1.227.237-.334.864-1.241.739-1.059.585-.878.209-.307.4-1-.474-.823-.92-.446-.683-.711.85-.432.167.014,1.352.139,1.282.056,1.2-.014,1.143-.07.362-.042.655.46-.711.725-.265.084-.85.446-.934.836-.669.809-1.1,1.436-.906,1.171-.683.906-.488.655-.139.181-.767,1.073-.711,1.032-.669,1.018-.544.892v5.381l.237,1.255.167.223.962.446.586.153.823.641-.014.1-.363.39-.627-.056-1.255-.084-1.241-.042h-1.227l-1.227.042-.99.056-.99-.293-.014-.07.53-.655,1.269-.5.362-.321.321-1,.042-.7V1333.9l-.46-.864-.516-.892-.585-.934-.627-.948-.7-1-.753-1.032-.808-1.059-.864-1.1-.934-1.129-.613-.739-.99-.962-.976-.586-.53-.167-.753-.432.655-.627,1.046.084,1.129.028Z" transform="translate(-1389.333 -1321.083)"/></g><g transform="translate(0 0)"><path class="a" d="M257.506,1316.011l1.191-.4.612-.206.6-.232.219-.09.612-.283.452-.236,1,.763.338.266.619.479.54.411.461.343.378.266.429.3.555.348,1.057.528.456.2.145-.066.489-.172.66-.175.829-.171.21-.037.594-.143.113-.131.176-.512-.117-.156-.354-.02-.674-.082-.557-.144-.8-.311-.582-.33-.617-.4-.265-.18-.407-.3-.453-.347-.5-.4-.548-.448-.6-.5-.4-.34.491-.473.451-.47.419-.49.387-.515.361-.541.329-.561.161-.309.3-.618.258-.606.219-.606.18-.6.142-.6.1-.522.1-.664.071-.651.039-.632.013-.618-.006-.419-.032-.7-.064-.67-.1-.657-.129-.632-.167-.612-.193-.593-.232-.573-.258-.548-.3-.535-.309-.5-.374-.515-.406-.49-.438-.457-.47-.432-.5-.393-.528-.367-.561-.335-.586-.309-.49-.219-.567-.226-.586-.2-.606-.167-.618-.148-.631-.116-.651-.1-.67-.064-.689-.039-.7-.013h-.129l-.7.02-.683.045-.664.077-.651.109-.631.129-.618.161-.593.193-.58.219-.561.245-.548.277-.528.3-.509.335-.49.361-.477.393-.457.419-.361.354-.419.47-.393.483-.361.5-.329.522-.3.535-.264.554-.238.573-.2.586-.174.606-.142.618-.11.638-.077.657-.045.67-.019.689.013.618.045.664.071.657.1.638.129.631.155.619.193.606.213.6.245.58.277.573.019.039.322.6.354.567.38.528.406.5.432.464.457.425.483.4.509.361.535.322.316.174.5.239.528.213.554.187.593.161.618.135.651.116.676.084.354.032.045-1.617-.309-.077-.586-.2-.567-.239-.464-.245-.528-.335-.509-.38-.483-.425-.457-.483-.438-.522-.238-.316-.341-.515-.322-.541-.283-.573-.264-.606-.225-.631-.206-.664-.1-.348-.161-.67-.135-.657-.11-.644-.071-.631-.045-.618-.019-.606v-.019l.019-.773.045-.734.077-.709.11-.677.142-.638.168-.612.206-.58.232-.548.258-.515.3-.483.322-.451.354-.419.29-.3.451-.4.483-.367.509-.316.535-.277.567-.232.6-.193.625-.148.651-.11.683-.064.709-.019.4.006.664.045.644.09.631.122.612.167.6.206.58.251.567.29.483.3.49.361.457.412.432.451.4.5.361.541.341.586.3.638.052.122.232.573.2.586.174.605.148.619.122.631.1.651.064.657.045.677.013.7-.006.3-.026.689-.052.67-.084.651-.11.638-.142.625-.167.606-.193.586-.225.573-.077.174-.3.619-.335.573-.348.494-2.176-2.18-.914-.291-.537.074-.584.113-.643.146-.693.191-.744.221-.8.263-.154.151-.239.695.123.137.882-.167.037-.008.735-.136.545-.058.206,0,.626.12.256.109.338.185.415.445.419.566,1.036,1.082-.621.331-.876.348-1.066.276Z" transform="translate(-243.267 -1292.603)"/></g></g><g transform="translate(281.581 201.768)"><g transform="translate(7.426)"><path class="b" d="M824.507,423.268c-9.039-1.264-11.38-10.429-8.6-17.178a29.969,29.969,0,0,1,6.176-8.779c2.621-2.758,5.963-4.816,8.825-7.365,2.882-2.567,5.561-5.361,8.224-7.954,3.739,6,2.868,11.886-3.087,16.882-1.9,1.6-3.949,3.035-5.982,4.471C822.769,408.5,820.9,414.916,824.507,423.268Z" transform="translate(-808.635 -365.623)"/><path class="b" d="M768.169,201.768c3.5,4.921,3.78,9.734.171,14.884a34.008,34.008,0,0,1-6.3,6.828c-7.244,5.885-12.2,12.941-12.6,22.837a20.538,20.538,0,0,1,.37-20.57c3.488-5.563,8.255-10.314,12.339-15.516C764.294,207.506,766.182,204.582,768.169,201.768Z" transform="translate(-746.864 -201.768)"/><path class="b" d="M969.4,562.634c2.464,7.542-.86,17.682-7.584,22.268a13.211,13.211,0,0,1-1.885,1.089c-2.267,1.047-4.675,1.642-6.736-.154-1.979-1.724-1.918-4.183-.876-6.338a17.628,17.628,0,0,1,3.669-5.249c2.2-2.032,4.926-3.475,7.207-5.428C965.427,566.911,967.378,564.677,969.4,562.634Z" transform="translate(-933.01 -529.858)"/></g><g transform="translate(0 57.842)"><path class="b" d="M665.1,845.217l2.363-6.612,47.3,17.141-2.251,6.638Z" transform="translate(-665.103 -838.605)"/><path class="b" d="M999.869,845.019l16.934-6.125,2.263,6.005C1012.809,849.406,1006.625,849.436,999.869,845.019Z" transform="translate(-969.463 -838.868)"/><path class="b" d="M685.557,999.66l-17.005,6.131-2.29-6.042C672.672,995.276,678.964,995.336,685.557,999.66Z" transform="translate(-666.157 -982.073)"/></g></g></g></svg>